<svg xmlns="http://www.w3.org/2000/svg" xmlns:xlink="http://www.w3.org/1999/xlink" viewBox="0 0 195.32 141.59"><defs><style>.cls-1{fill:url(#Dégradé_sans_nom_3);}.cls-2{fill:url(#Dégradé_sans_nom_9);}</style><linearGradient id="Dégradé_sans_nom_3" x1="1.84" y1="53.46" x2="108.76" y2="53.46" gradientUnits="userSpaceOnUse"><stop offset="0" stop-color="#ffe500"/><stop offset="1" stop-color="#ffbf00"/></linearGradient><linearGradient id="Dégradé_sans_nom_9" y1="86.63" x2="195.32" y2="86.63" gradientUnits="userSpaceOnUse"><stop offset="0" stop-color="#ecf3fc"/><stop offset="1" stop-color="#cad9e8"/></linearGradient></defs><g id="Calque_2" data-name="Calque 2"><g id="Calque_1-2" data-name="Calque 1"><circle class="cls-1" cx="55.3" cy="53.46" r="53.46"/><path class="cls-2" d="M173.44,97.84c-.57,0-1.14,0-1.71.07,0-.17,0-.35,0-.53a33.76,33.76,0,0,0-29.22-33.45c0-.1,0-.2,0-.3a7,7,0,0,0-9.73-6.46,47,47,0,0,0-87,8.71,18.22,18.22,0,0,0-21.52,25.9,24.91,24.91,0,0,0,.59,49.81H173.44a21.88,21.88,0,1,0,0-43.75Z"/></g></g></svg>