<svg xmlns="http://www.w3.org/2000/svg" xmlns:xlink="http://www.w3.org/1999/xlink" viewBox="0 0 455.8 89.55"><defs><style>.cls-1{fill:url(#Dégradé_sans_nom_3);}.cls-2{fill:url(#Dégradé_sans_nom_9);}.cls-3{fill:#000c1e;}</style><linearGradient id="Dégradé_sans_nom_3" x1="3.12" y1="33.51" x2="70.14" y2="33.51" gradientUnits="userSpaceOnUse"><stop offset="0" stop-color="#ffe500"/><stop offset="1" stop-color="#ffbf00"/></linearGradient><linearGradient id="Dégradé_sans_nom_9" y1="55.57" x2="110.67" y2="55.57" gradientUnits="userSpaceOnUse"><stop offset="0" stop-color="#ecf3fc"/><stop offset="1" stop-color="#cad9e8"/></linearGradient></defs><g id="Calque_2" data-name="Calque 2"><g id="Calque_1-2" data-name="Calque 1"><circle class="cls-1" cx="36.63" cy="33.51" r="33.51"/><path class="cls-2" d="M110.67,45.67a15.2,15.2,0,0,0-2.4-.18,10.78,10.78,0,0,0-8.16,3.07c-2,2-3,4.93-3,8.67V87.36c-.35.15-.71.29-1.07.42a15.14,15.14,0,0,1-3,.83,9.51,9.51,0,0,1-1.18.11l-.82,0h-.25l-5.69,0-5.72,0H74.1l-47.58-.16a10.28,10.28,0,0,1-7.16-1.4A10.47,10.47,0,0,1,15,81.77a9.48,9.48,0,0,1-3.2,1.14,10.11,10.11,0,0,1-9-3A10,10,0,0,1,.15,74.7,10.1,10.1,0,0,1,8.39,63a10.73,10.73,0,0,1,1.7-.14,17.85,17.85,0,0,1-.5-2,15.18,15.18,0,0,1-.14-4.5,17.49,17.49,0,0,1,.47-2.6h0A16.44,16.44,0,0,1,23,41.81a16.25,16.25,0,0,1,11.19,2.07A25.9,25.9,0,0,1,68.77,24h0a26.07,26.07,0,0,1,10.6,7.38c.36.41.7.84,1,1.27a13.57,13.57,0,0,1,3.67-1.94h8.81a13.1,13.1,0,0,1,4.26,2.44V38a17.74,17.74,0,0,1,2.2-2.46,13.41,13.41,0,0,1,2.31,5.52,12.23,12.23,0,0,1,.15,3.19c.41-.1.85-.21,1.26-.28A10.14,10.14,0,0,1,110.67,45.67Z"/><path class="cls-3" d="M170.57,36.66q-6.39-6.55-17.2-6.55a22.16,22.16,0,0,0-11.33,3,23.31,23.31,0,0,0-8.21,7.8,20.14,20.14,0,0,0-8.05-8,24,24,0,0,0-11.7-2.8,22.22,22.22,0,0,0-9.87,2.13,19.38,19.38,0,0,0-4.86,3.31A17.74,17.74,0,0,0,97.15,38V30.73H79.38v58H97.15V57.23c0-3.74,1-6.63,3-8.67a10.78,10.78,0,0,1,8.16-3.07,15.2,15.2,0,0,1,2.4.18,9.9,9.9,0,0,1,5.75,2.89q3,3.06,3,8.67V88.72h17.66V57.23q0-5.61,3-8.67a12.38,12.38,0,0,1,16.32,0q3,3.06,3,8.67V88.72H177V54.84Q177,43.2,170.57,36.66Z"/><path class="cls-3" d="M238.09,58.79a30.62,30.62,0,0,0-3.69-15.28,25.41,25.41,0,0,0-10.24-10.08,33.68,33.68,0,0,0-30.24.11,25.55,25.55,0,0,0-10.34,10.39,32.44,32.44,0,0,0-3.69,15.8,32.11,32.11,0,0,0,3.74,15.79A25.81,25.81,0,0,0,194,85.91a31,31,0,0,0,15.17,3.64A30.41,30.41,0,0,0,222,87a26.25,26.25,0,0,0,9.51-7.17,25.83,25.83,0,0,0,5.25-10.29H217.83q-2.61,5.63-9.25,5.62A10.62,10.62,0,0,1,201,72.25Q198,69.39,197.56,64h40.22A45,45,0,0,0,238.09,58.79Zm-40.43-4.68a11.53,11.53,0,0,1,3.8-7.37,11.25,11.25,0,0,1,7.53-2.6,11.5,11.5,0,0,1,7.8,2.7,9.16,9.16,0,0,1,3.11,7.27Z"/><path class="cls-3" d="M273.42,73.65a6.08,6.08,0,0,1-4.15-1.14A4.87,4.87,0,0,1,268,68.77V45.49h11.64V30.73H268V16.6H250.25V30.73h-7.07V45.49h7.07V68.56q0,10.71,5.4,15.43t15.07,4.73h9V73.65Z"/><path class="cls-3" d="M344.3,58.79a30.62,30.62,0,0,0-3.69-15.28,25.41,25.41,0,0,0-10.24-10.08,33.68,33.68,0,0,0-30.24.11,25.55,25.55,0,0,0-10.34,10.39,32.44,32.44,0,0,0-3.69,15.8,32.11,32.11,0,0,0,3.74,15.79,25.85,25.85,0,0,0,10.39,10.39,31.1,31.1,0,0,0,15.18,3.64A30.41,30.41,0,0,0,328.19,87a26.25,26.25,0,0,0,9.51-7.17A25.83,25.83,0,0,0,343,69.49H324q-2.59,5.63-9.25,5.62a10.6,10.6,0,0,1-7.53-2.86q-3.08-2.86-3.48-8.26H344A45,45,0,0,0,344.3,58.79Zm-40.43-4.68a11.52,11.52,0,0,1,3.79-7.37,11.29,11.29,0,0,1,7.54-2.6,11.47,11.47,0,0,1,7.79,2.7,9.13,9.13,0,0,1,3.12,7.27Z"/><path class="cls-3" d="M406.44,44a26.75,26.75,0,0,0-10.81-10.44,34.31,34.31,0,0,0-30.76,0A26.87,26.87,0,0,0,354.06,44a30.85,30.85,0,0,0-3.94,15.75A31.12,31.12,0,0,0,354,75.52a26.57,26.57,0,0,0,10.71,10.39,31.91,31.91,0,0,0,15.33,3.64,32.56,32.56,0,0,0,15.43-3.64,27.06,27.06,0,0,0,10.91-10.44,30.45,30.45,0,0,0,4-15.74A30.85,30.85,0,0,0,406.44,44ZM388.72,70.43a11.58,11.58,0,0,1-8.67,3.74,10.93,10.93,0,0,1-8.47-3.74q-3.39-3.74-3.38-10.7T371.63,49a11.81,11.81,0,0,1,17.2.05q3.48,3.75,3.48,10.71T388.72,70.43Z"/><path class="cls-3" d="M445.41,32.86a23.45,23.45,0,0,0-7.79,7.54V30.73H419.85v58h17.77V61.81q0-7.19,3.32-10t10-2.86h4.88V30.11A20.15,20.15,0,0,0,445.41,32.86Z"/></g></g></svg>