<svg xmlns="http://www.w3.org/2000/svg" viewBox="0 0 751.72 238.08"><defs><style>.cls-1{fill:#3c48ff;}.cls-2{fill:#3741fa;}</style></defs><g id="Calque_2" data-name="Calque 2"><g id="OBJECTS"><path class="cls-1" d="M663.92,68.11q-3,3.4-6.14,6.68C642.47,90.5,621,101.63,608.84,115.45,598.1,127.69,589,138.18,582,145.08c-11.32-6.72-28.31-11.44-40.77-18.05-20.76-11-37-21.8-53.1-15.74-11.89,4.49-21,15.14-34,22.66-15.58,9-35,15.28-48.5,23.94-9.93,6.39-18.73,12-25.61,15.73a13.8,13.8,0,0,1-13.31-.28l-5.73-3.5c-13.43-8.22-32-9.21-46.76-2.52l-48.43,23.6c-11.2,4.05-26.59-3.91-39.47-4.09-11.33-.17-20.14,7.76-30.46,6.41-6.31-.83-12.49-7.82-18.44-9.77-8.55-2.8-16.7-1-24.71-5.14-15.1-7.74-36.05-11.68-50.81-19.83-19.43-10.72-33.25-24.28-51.69-34.79-16.5-9.42-34.3-17-50.24-24.94V67.62c19.13-.14,29.2,15.46,62.29,16.13a129.5,129.5,0,0,0,19.46-1.16C94,81,103.25,85.33,113.29,88.34c9,2.71,19,3.79,26.63,8.35,9.33,5.58,15.87,13.38,23.71,18.82,3,2.12,7,3.32,10.42,4.65a7.52,7.52,0,0,0,6.85-.66c7.81-5.12,18.79-8.55,29.73-14.16,7-3.6,12.8-10.33,20.71-13.55,5.39-2.2,10.94-4.28,16.58-6.2,11-3.74,24.13,2,38,7.59,8.35,3.37,17,5.07,25.54,9.26,8.08,3.94,14.87,9.55,22.63,12.57,7.54,2.94,16.08,3.34,22.85,3.92a62.22,62.22,0,0,0,18.93-1c9.13-2,16.12-6.16,24-10.8a162.41,162.41,0,0,1,18-9.5,112.24,112.24,0,0,1,13.38-4.83,70.93,70.93,0,0,1,11.28-2.38c26.64-3.31,39.07,12.69,54.4,14,17.36,1.45,36-14.5,55.78-13s41.46-41.28,65.83-41.28C632.09,50.11,649.73,59.33,663.92,68.11Z"/><path class="cls-2" d="M709.19,19.15c-17.87,11.82-29.94,31.48-45.27,49q-3,3.4-6.14,6.68C642.47,90.5,621,101.63,608.84,115.45,598.1,127.69,589,138.18,582,145.08c-11.32-6.72-28.31-11.44-40.77-18.05-20.76-11-37-21.8-53.1-15.74-11.89,4.49-21,15.14-34,22.66-15.58,9-35,15.28-48.5,23.94-9.93,6.39-18.73,12-25.61,15.73a13.8,13.8,0,0,1-13.31-.28l-5.73-3.5c-13.43-8.22-32-9.21-46.76-2.52l-48.43,23.6c-11.2,4.05-26.59-3.91-39.47-4.09-11.33-.17-20.14,7.76-30.46,6.41-6.31-.83-12.49-7.82-18.44-9.77-8.55-2.8-16.7-1-24.71-5.14-15.1-7.74-36.05-11.68-50.81-19.83-19.43-10.72-33.25-24.28-51.69-34.79-16.5-9.42-34.3-17-50.24-24.94V238.08H751.72V0C737.86,2.75,723.5,9.68,709.19,19.15Z"/></g></g></svg>